<svg xmlns="http://www.w3.org/2000/svg" width="3.778in" height="2.833in" viewBox="0 0 272 204"><defs><style>.a{fill:#ffe9e4;}.b{fill:#ffd1c7;}.c{fill:#3a36e4;}.d{fill:#fff;}</style></defs><rect class="a" width="272" height="204"/><rect class="b" x="87" y="53" width="98" height="98"/><path class="c" d="M185,58.5a1.5,1.5,0,0,1-1.5-1.5V54.5H181a1.5,1.5,0,0,1,0-3h4a1.5,1.5,0,0,1,1.5,1.5v4A1.5,1.5,0,0,1,185,58.5Z"/><path class="c" d="M170.024,54.5h-8.78a1.5,1.5,0,0,1,0-3h8.78a1.5,1.5,0,0,1,0,3Zm-19.755,0h-8.781a1.5,1.5,0,0,1,0-3h8.781a1.5,1.5,0,0,1,0,3Zm-19.756,0h-8.782a1.5,1.5,0,0,1,0-3h8.782a1.5,1.5,0,0,1,0,3Zm-19.757,0h-8.78a1.5,1.5,0,0,1,0-3h8.78a1.5,1.5,0,0,1,0,3Z"/><path class="c" d="M87,58.5A1.5,1.5,0,0,1,85.5,57V53A1.5,1.5,0,0,1,87,51.5h4a1.5,1.5,0,0,1,0,3H88.5V57A1.5,1.5,0,0,1,87,58.5Z"/><path class="c" d="M87,137.524a1.5,1.5,0,0,1-1.5-1.5v-8.78a1.5,1.5,0,0,1,3,0v8.78A1.5,1.5,0,0,1,87,137.524Zm0-19.755a1.5,1.5,0,0,1-1.5-1.5v-8.782a1.5,1.5,0,0,1,3,0v8.782A1.5,1.5,0,0,1,87,117.769Zm0-19.757a1.5,1.5,0,0,1-1.5-1.5V87.731a1.5,1.5,0,0,1,3,0v8.781A1.5,1.5,0,0,1,87,98.012Zm0-19.756a1.5,1.5,0,0,1-1.5-1.5v-8.78a1.5,1.5,0,0,1,3,0v8.78A1.5,1.5,0,0,1,87,78.256Z"/><path class="c" d="M91,152.5H87a1.5,1.5,0,0,1-1.5-1.5v-4a1.5,1.5,0,0,1,3,0v2.5H91a1.5,1.5,0,0,1,0,3Z"/><path class="c" d="M170.024,152.5h-8.78a1.5,1.5,0,0,1,0-3h8.78a1.5,1.5,0,0,1,0,3Zm-19.755,0h-8.782a1.5,1.5,0,1,1,0-3h8.782a1.5,1.5,0,0,1,0,3Zm-19.757,0h-8.781a1.5,1.5,0,0,1,0-3h8.781a1.5,1.5,0,0,1,0,3Zm-19.756,0h-8.78a1.5,1.5,0,0,1,0-3h8.78a1.5,1.5,0,0,1,0,3Z"/><path class="c" d="M185,152.5h-4a1.5,1.5,0,0,1,0-3h2.5V147a1.5,1.5,0,0,1,3,0v4A1.5,1.5,0,0,1,185,152.5Z"/><path class="c" d="M185,137.524a1.5,1.5,0,0,1-1.5-1.5v-8.78a1.5,1.5,0,0,1,3,0v8.78A1.5,1.5,0,0,1,185,137.524Zm0-19.755a1.5,1.5,0,0,1-1.5-1.5v-8.781a1.5,1.5,0,0,1,3,0v8.781A1.5,1.5,0,0,1,185,117.769Zm0-19.756a1.5,1.5,0,0,1-1.5-1.5V87.731a1.5,1.5,0,0,1,3,0v8.782A1.5,1.5,0,0,1,185,98.013Zm0-19.757a1.5,1.5,0,0,1-1.5-1.5v-8.78a1.5,1.5,0,0,1,3,0v8.78A1.5,1.5,0,0,1,185,78.256Z"/><rect class="d" x="87" y="106.455" width="44.545" height="44.545"/><path class="c" d="M131.546,152.5H87a1.5,1.5,0,0,1-1.5-1.5V106.454a1.5,1.5,0,0,1,1.5-1.5h44.546a1.5,1.5,0,0,1,1.5,1.5V151A1.5,1.5,0,0,1,131.546,152.5Zm-43.046-3h41.546V107.954H88.5Z"/><path class="c" d="M131.546,107.954a1.5,1.5,0,0,1-1.061-2.56l31.072-31.072a1.5,1.5,0,1,1,2.121,2.121l-31.072,31.072A1.493,1.493,0,0,1,131.546,107.954Z"/><path class="c" d="M162.728,103.5a1.5,1.5,0,0,1-1.5-1.5V76.772H136a1.5,1.5,0,0,1,0-3h26.728a1.5,1.5,0,0,1,1.5,1.5V102A1.5,1.5,0,0,1,162.728,103.5Z"/></svg>